<svg data-v-423bf9ae="" xmlns="http://www.w3.org/2000/svg" viewBox="0 0 515.075196865638 163" class="iconAbove"><!----><!----><!----><g data-v-423bf9ae="" id="1bf28995-433b-47f8-8eb7-62661a82d25b" fill="white" transform="matrix(5.639098067841383,0,0,5.639098067841383,-5.921056578350829,86.47744204635576)"><path d="M2.23 13.43L2.23 6.78C2.23 6.30 2.23 5.82 2.17 5.38C2.25 5.64 2.63 6.36 2.83 6.68L6.93 13.43L8.23 13.43L8.23 3.63L7.06 3.63L7.06 9.94C7.06 10.43 7.07 11.24 7.13 11.59C7 11.27 6.72 10.77 6.50 10.39L2.35 3.63L1.05 3.63L1.05 13.43ZM12.95 13.57C14.78 13.57 16.16 12.53 16.16 10.07C16.16 7.71 14.88 6.61 12.95 6.61C11.05 6.61 9.76 7.71 9.76 10.07C9.76 12.53 11.13 13.57 12.95 13.57ZM14.88 10.05C14.88 11.72 14.17 12.57 12.95 12.57C11.76 12.57 11.05 11.72 11.05 10.05C11.05 8.37 11.82 7.60 12.95 7.60C14.11 7.60 14.88 8.37 14.88 10.05ZM25.52 11.89L22.44 3.63L21.20 3.63L20.66 13.43L21.88 13.43L22.16 7.84C22.18 7.52 22.19 7.14 22.19 6.78C22.19 6.41 22.18 6.05 22.18 5.74C22.37 6.38 22.68 7.25 22.86 7.73L24.96 13.43L26.07 13.43L28.18 7.74C28.34 7.32 28.67 6.38 28.88 5.74C28.87 6.10 28.85 6.58 28.85 7.03C28.85 7.32 28.87 7.60 28.88 7.84L29.16 13.43L30.37 13.43L29.85 3.63L28.59 3.63ZM34.87 13.57C36.71 13.57 38.08 12.53 38.08 10.07C38.08 7.71 36.81 6.61 34.87 6.61C32.97 6.61 31.68 7.71 31.68 10.07C31.68 12.53 33.05 13.57 34.87 13.57ZM36.81 10.05C36.81 11.72 36.09 12.57 34.87 12.57C33.68 12.57 32.97 11.72 32.97 10.05C32.97 8.37 33.74 7.60 34.87 7.60C36.04 7.60 36.81 8.37 36.81 10.05ZM40.84 13.43L40.84 13.02C40.84 9.24 41.99 7.77 43.27 7.77C43.48 7.77 43.67 7.78 43.82 7.83L43.82 6.66C43.64 6.62 43.48 6.61 43.23 6.61C42.01 6.61 41.24 7.62 40.81 9.09L40.78 6.75L39.56 6.75L39.56 13.43ZM47.33 6.61C45.39 6.61 44.23 7.74 44.23 9.95C44.23 12.33 45.64 13.57 47.88 13.57C48.64 13.57 49.46 13.44 50.09 13.19L50.09 12.15C49.31 12.40 48.44 12.52 47.85 12.52C46.44 12.52 45.61 11.84 45.46 10.40L50.20 10.40L50.20 9.83C50.20 7.71 49.17 6.61 47.33 6.61ZM47.32 7.56C48.41 7.56 48.96 8.40 48.96 9.53L45.44 9.53C45.56 8.18 46.28 7.56 47.32 7.56ZM55.76 5.80C55.76 4.97 56.34 4.51 57.53 4.51C58.31 4.51 58.97 4.63 59.64 4.82L59.64 3.78C59.08 3.63 58.48 3.49 57.41 3.49C55.44 3.49 54.53 4.40 54.53 5.81C54.53 6.94 55.16 7.64 56.83 8.85C58.27 9.87 58.67 10.37 58.67 11.06C58.67 12.04 58.02 12.52 56.78 12.52C55.79 12.52 54.88 12.32 54.39 12.19L54.39 13.26C54.77 13.36 55.69 13.57 56.81 13.57C58.77 13.57 59.91 12.70 59.91 11.00C59.91 9.79 59.21 9.09 57.74 8.01C56.13 6.82 55.76 6.50 55.76 5.80ZM62.52 13.43L62.52 12.87C62.55 10.81 63.11 7.67 64.44 7.67C65.09 7.67 65.35 8.15 65.35 9.16L65.35 13.43L66.63 13.43L66.63 12.19C66.75 10.19 67.33 7.67 68.53 7.67C69.17 7.67 69.43 8.15 69.43 9.16L69.43 13.43L70.69 13.43L70.69 8.90C70.69 7.52 70.31 6.62 68.94 6.62C67.80 6.62 67.06 7.38 66.63 8.76C66.60 7.46 66.16 6.62 64.86 6.62C63.69 6.62 62.93 7.43 62.50 8.90L62.47 6.75L61.25 6.75L61.25 13.43ZM75.29 13.57C77.13 13.57 78.50 12.53 78.50 10.07C78.50 7.71 77.22 6.61 75.29 6.61C73.39 6.61 72.10 7.71 72.10 10.07C72.10 12.53 73.47 13.57 75.29 13.57ZM77.22 10.05C77.22 11.72 76.51 12.57 75.29 12.57C74.10 12.57 73.39 11.72 73.39 10.05C73.39 8.37 74.16 7.60 75.29 7.60C76.45 7.60 77.22 8.37 77.22 10.05ZM83.41 9.90L86.00 6.75L84.60 6.75L82.38 9.42L81.26 9.42L81.26 2.93L79.98 2.93L79.98 13.43L81.26 13.43L81.26 10.49L82.42 10.49L84.73 13.43L86.14 13.43ZM89.52 6.61C87.57 6.61 86.41 7.74 86.41 9.95C86.41 12.33 87.82 13.57 90.06 13.57C90.82 13.57 91.64 13.44 92.27 13.19L92.27 12.15C91.49 12.40 90.62 12.52 90.03 12.52C88.62 12.52 87.79 11.84 87.64 10.40L92.39 10.40L92.39 9.83C92.39 7.71 91.35 6.61 89.52 6.61ZM89.50 7.56C90.59 7.56 91.14 8.40 91.14 9.53L87.63 9.53C87.74 8.18 88.47 7.56 89.50 7.56Z"></path></g><!----><g data-v-423bf9ae="" id="7a34bf6f-a5dd-421e-b7a5-18e30dfcdca4" transform="matrix(2.039844870196029,0,0,2.039844870196029,191.32006110377307,-16.56311917404186)" stroke="none" fill="white"><path clip-rule="evenodd" d="M28.062 23.841l6.681.071c.535-.625.94-1.381 1.359-2.124 2.893-2.089 5.269-4.706 7.563-7.404 1.41-.956 2.638-1.74 4.311-3.163.962-.818 3.088-3.549 4.291-1.291.594 1.116-4.353 5.22-5.685 6.622-2.374 2.504-4.818 4.605-6.217 6.618 8.1.359 16.847-1.442 21.896 2.103 1.651 3.647 1.728 8.454-1.45 10.678-4.868 3.406-15.211.608-21.944 2.439 1.575 4.277 5.418 8.628 7.612 13.179-.405.309-1.097.321-1.345.787-4.563-3.907-7.119-9.782-11.076-14.285-2.203-.376-5.559-.514-7.75-.081-4.471 4.619-8.104 10.095-14.04 13.217-.605-.379-1.025-.936-1.589-1.354 2.994-4.505 7.809-7.153 10.814-11.646-3.227-.398-7.535 1.053-10.424-.111 1.564-3.446 8.99-2.344 12.858-2.536 1.315-1.719 3.334-2.718 4.592-4.496-1.05-1.53-2.308-2.854-3.43-4.314-4.13.094-9.423.54-13.102.396.44-4.154 8.024-2.416 10.992-3.091-1.943-5.239-5.862-8.544-7.604-13.981.779-.825 1.599-1.608 2.96-1.839 3.497 4.951 6.681 10.211 9.727 15.606zm13.61 2.015c.523 3.312 1.049 5.674.974 9.101 5.989-.277 13.604 1.106 17.654-1.15.654-3.021 1.184-5.268-.455-7.489-5.311-1.638-12.525-.172-18.173-.462zm-8.604 4.721c.805 3.625 3.472 5.718 7.973 4.361 1.007-3.291-.223-6.125-1.243-8.834-3.645-.835-4.561 2.952-6.73 4.473zm-2.372-3.233c.505.036.176.886.794.81-.2-.685 1.058-1.217.283-1.601-.077.55-1.183.052-1.077.791zm-1.956 7.998c.814-.159 2.299.367 2.677-.237-.511-1.627-2.32-1.554-2.677.237z"></path><path clip-rule="evenodd" d="M10.664 25.796c2.113 2.909 1.548 9.255-.391 11.756-.558-2.328.586-7.478-.421-10.697.363-.257.542-.707.812-1.059zM7.455 26.029l.801.008c1.426 3.663.827 8.243.146 11.496-.926.2-1.174-.262-1.329-.815-1.68 1.021-2.035 1.854-4.29 1.29-2.179-3.498-.864-8.956 1.193-11.748.313.311.941.313 1.6.284 1.286 1.413 1.289 5.402.721 7.759.022.826 1.152-1.205 1.066.28 1.221-2.936-1.162-6.326.092-8.554zM4.941 36.16c.284-2.629 1.363-6.598-.981-8.296-1.168 2.339-1.321 7.149.981 8.296zM54.765 26.529a.57.57 0 0 1-.014 1.068c-.438-.534.028-.337.014-1.068zM48.612 26.732c-.071 1.36-1.726 2.266-2.691 1.843.47-1.052 1.311-1.722 2.691-1.843zM52.352 27.039c-.345 1.417-1.301 3.456-2.704 2.912.125-1.504 1.43-.933 1.096-2.394.558-.149.769-.656 1.608-.518zM56.896 27.087c.995.254-.172 1.642-1.086 1.593-.003-.905.634-1.153 1.086-1.593zM58.232 27.101l.802.009c-.004.267-.007.534-.009.802-.729-.032-.543.439-1.069-.011.144-.214.283-.432.276-.8zM44.059 27.753c.113.837-.246 1.19-1.083 1.058-.115-.838.246-1.191 1.083-1.058zM54.994 30.007c-.35.455-.565 1.045-1.349 1.055-.306-1.157.788-1.594 1.349-1.055zM45.633 30.442l1.604.018c-.093.896-.905 1.056-1.618 1.318-.496-.513.163-.481.014-1.336zM51.243 30.769c1.021-.113 1.023 1.565.78 1.88-1.064.164-.752-1.024-.78-1.88zM57.651 31.372c1.132.134.611 1.046.251 1.607-.967-.254-.155-.791-.251-1.607zM44.545 32.302c.469.07.604.467.522 1.074-.356-.004-.713-.007-1.069-.012-.186-.73.537-.531.547-1.062zM53.899 32.401c-.555.425-.532 1.438-1.619 1.32.079-.911.587-1.383 1.619-1.32zM49.619 32.623c-.294.89.075.915-.286 1.869-.213-.144-.432-.284-.801-.276.269-.628.106-1.694 1.087-1.593z"></path></g><!----></svg>