<?xml version="1.0" encoding="UTF-8" standalone="no"?>
<svg
   xmlns:dc="http://purl.org/dc/elements/1.1/"
   xmlns:cc="http://creativecommons.org/ns#"
   xmlns:rdf="http://www.w3.org/1999/02/22-rdf-syntax-ns#"
   xmlns:svg="http://www.w3.org/2000/svg"
   xmlns="http://www.w3.org/2000/svg"
   xmlns:sodipodi="http://sodipodi.sourceforge.net/DTD/sodipodi-0.dtd"
   xmlns:inkscape="http://www.inkscape.org/namespaces/inkscape"
   data-v-fde0c5aa=""
   viewBox="0 0 300 300"
   class="iconAbove"
   version="1.1"
   id="svg18"
   sodipodi:docname="icon.svg"
   inkscape:version="1.0.2 (e86c870879, 2021-01-15)"
   inkscape:export-filename="/home/free4fun/hackspaceuy/free4fun/noMoreSmoke/assets/No More Smoke-logo/icon.png"
   inkscape:export-xdpi="320"
   inkscape:export-ydpi="320">
  <metadata
     id="metadata22">
    <rdf:RDF>
      <cc:Work
         rdf:about="">
        <dc:format>image/svg+xml</dc:format>
        <dc:type
           rdf:resource="http://purl.org/dc/dcmitype/StillImage" />
      </cc:Work>
    </rdf:RDF>
  </metadata>
  <sodipodi:namedview
     pagecolor="#ffffff"
     bordercolor="#666666"
     borderopacity="1"
     objecttolerance="10"
     gridtolerance="10"
     guidetolerance="10"
     inkscape:pageopacity="0"
     inkscape:pageshadow="2"
     inkscape:window-width="1366"
     inkscape:window-height="691"
     id="namedview20"
     showgrid="false"
     inkscape:zoom="1.5181365"
     inkscape:cx="150"
     inkscape:cy="150"
     inkscape:window-x="0"
     inkscape:window-y="0"
     inkscape:window-maximized="1"
     inkscape:current-layer="svg18"
     inkscape:document-rotation="0" />
  <!---->
  <defs
     data-v-fde0c5aa=""
     id="defs2">
    <!---->
  </defs>
  <rect
     data-v-fde0c5aa=""
     fill="#54553C"
     x="0"
     y="0"
     width="300px"
     height="300px"
     class="logo-background-square"
     id="rect4" />
  <defs
     data-v-fde0c5aa=""
     id="defs6">
    <!---->
  </defs>
  <defs
     data-v-fde0c5aa=""
     id="defs11">
    <!---->
  </defs>
  <g
     data-v-fde0c5aa=""
     id="4eee0d92-edf8-4703-9cd5-bd2e0d6d8c32"
     stroke="none"
     fill="#9bd92b"
     transform="matrix(3.6753346,0,0,3.6753346,30.471264,38.653901)">
    <path
       clip-rule="evenodd"
       d="m 28.062,23.841 6.681,0.071 c 0.535,-0.625 0.94,-1.381 1.359,-2.124 2.893,-2.089 5.269,-4.706 7.563,-7.404 1.41,-0.956 2.638,-1.74 4.311,-3.163 0.962,-0.818 3.088,-3.549 4.291,-1.291 0.594,1.116 -4.353,5.22 -5.685,6.622 -2.374,2.504 -4.818,4.605 -6.217,6.618 8.1,0.359 16.847,-1.442 21.896,2.103 1.651,3.647 1.728,8.454 -1.45,10.678 -4.868,3.406 -15.211,0.608 -21.944,2.439 1.575,4.277 5.418,8.628 7.612,13.179 -0.405,0.309 -1.097,0.321 -1.345,0.787 -4.563,-3.907 -7.119,-9.782 -11.076,-14.285 -2.203,-0.376 -5.559,-0.514 -7.75,-0.081 -4.471,4.619 -8.104,10.095 -14.04,13.217 -0.605,-0.379 -1.025,-0.936 -1.589,-1.354 2.994,-4.505 7.809,-7.153 10.814,-11.646 -3.227,-0.398 -7.535,1.053 -10.424,-0.111 1.564,-3.446 8.99,-2.344 12.858,-2.536 1.315,-1.719 3.334,-2.718 4.592,-4.496 -1.05,-1.53 -2.308,-2.854 -3.43,-4.314 -4.13,0.094 -9.423,0.54 -13.102,0.396 0.44,-4.154 8.024,-2.416 10.992,-3.091 -1.943,-5.239 -5.862,-8.544 -7.604,-13.981 0.779,-0.825 1.599,-1.608 2.96,-1.839 3.497,4.951 6.681,10.211 9.727,15.606 z m 13.61,2.015 c 0.523,3.312 1.049,5.674 0.974,9.101 5.989,-0.277 13.604,1.106 17.654,-1.15 0.654,-3.021 1.184,-5.268 -0.455,-7.489 C 54.534,24.68 47.32,26.146 41.672,25.856 Z m -8.604,4.721 c 0.805,3.625 3.472,5.718 7.973,4.361 1.007,-3.291 -0.223,-6.125 -1.243,-8.834 -3.645,-0.835 -4.561,2.952 -6.73,4.473 z m -2.372,-3.233 c 0.505,0.036 0.176,0.886 0.794,0.81 -0.2,-0.685 1.058,-1.217 0.283,-1.601 -0.077,0.55 -1.183,0.052 -1.077,0.791 z m -1.956,7.998 c 0.814,-0.159 2.299,0.367 2.677,-0.237 -0.511,-1.627 -2.32,-1.554 -2.677,0.237 z"
       id="path13" />
    <path
       clip-rule="evenodd"
       d="m 10.664,25.796 c 2.113,2.909 1.548,9.255 -0.391,11.756 -0.558,-2.328 0.586,-7.478 -0.421,-10.697 0.363,-0.257 0.542,-0.707 0.812,-1.059 z m -3.209,0.233 0.801,0.008 C 9.682,29.7 9.083,34.28 8.402,37.533 7.476,37.733 7.228,37.271 7.073,36.718 5.393,37.739 5.038,38.572 2.783,38.008 0.604,34.51 1.919,29.052 3.976,26.26 c 0.313,0.311 0.941,0.313 1.6,0.284 1.286,1.413 1.289,5.402 0.721,7.759 0.022,0.826 1.152,-1.205 1.066,0.28 1.221,-2.936 -1.162,-6.326 0.092,-8.554 z M 4.941,36.16 C 5.225,33.531 6.304,29.562 3.96,27.864 2.792,30.203 2.639,35.013 4.941,36.16 Z m 49.824,-9.631 a 0.57,0.57 0 0 1 -0.014,1.068 c -0.438,-0.534 0.028,-0.337 0.014,-1.068 z m -6.153,0.203 c -0.071,1.36 -1.726,2.266 -2.691,1.843 0.47,-1.052 1.311,-1.722 2.691,-1.843 z m 3.74,0.307 c -0.345,1.417 -1.301,3.456 -2.704,2.912 0.125,-1.504 1.43,-0.933 1.096,-2.394 0.558,-0.149 0.769,-0.656 1.608,-0.518 z m 4.544,0.048 c 0.995,0.254 -0.172,1.642 -1.086,1.593 -0.003,-0.905 0.634,-1.153 1.086,-1.593 z m 1.336,0.014 0.802,0.009 c -0.004,0.267 -0.007,0.534 -0.009,0.802 -0.729,-0.032 -0.543,0.439 -1.069,-0.011 0.144,-0.214 0.283,-0.432 0.276,-0.8 z m -14.173,0.652 c 0.113,0.837 -0.246,1.19 -1.083,1.058 -0.115,-0.838 0.246,-1.191 1.083,-1.058 z m 10.935,2.254 c -0.35,0.455 -0.565,1.045 -1.349,1.055 -0.306,-1.157 0.788,-1.594 1.349,-1.055 z m -9.361,0.435 1.604,0.018 c -0.093,0.896 -0.905,1.056 -1.618,1.318 -0.496,-0.513 0.163,-0.481 0.014,-1.336 z m 5.61,0.327 c 1.021,-0.113 1.023,1.565 0.78,1.88 -1.064,0.164 -0.752,-1.024 -0.78,-1.88 z m 6.408,0.603 c 1.132,0.134 0.611,1.046 0.251,1.607 -0.967,-0.254 -0.155,-0.791 -0.251,-1.607 z m -13.106,0.93 c 0.469,0.07 0.604,0.467 0.522,1.074 -0.356,-0.004 -0.713,-0.007 -1.069,-0.012 -0.186,-0.73 0.537,-0.531 0.547,-1.062 z m 9.354,0.099 c -0.555,0.425 -0.532,1.438 -1.619,1.32 0.079,-0.911 0.587,-1.383 1.619,-1.32 z m -4.28,0.222 c -0.294,0.89 0.075,0.915 -0.286,1.869 -0.213,-0.144 -0.432,-0.284 -0.801,-0.276 0.269,-0.628 0.106,-1.694 1.087,-1.593 z"
       id="path15" />
  </g>
  <!---->
</svg>
