<svg data-v-423bf9ae="" xmlns="http://www.w3.org/2000/svg" viewBox="0 0 515.075196865638 60" class="font"><!----><!----><!----><g data-v-423bf9ae="" id="00b797bc-e6ea-46cd-ab49-e69be2456c42" fill="black" transform="matrix(5.639098067841383,0,0,5.639098067841383,-5.921056578350829,-16.522557953644238)"><path d="M2.23 13.43L2.23 6.78C2.23 6.30 2.23 5.82 2.17 5.38C2.25 5.64 2.63 6.36 2.83 6.68L6.93 13.43L8.23 13.43L8.23 3.63L7.06 3.63L7.06 9.94C7.06 10.43 7.07 11.24 7.13 11.59C7 11.27 6.72 10.77 6.50 10.39L2.35 3.63L1.05 3.63L1.05 13.43ZM12.95 13.57C14.78 13.57 16.16 12.53 16.16 10.07C16.16 7.71 14.88 6.61 12.95 6.61C11.05 6.61 9.76 7.71 9.76 10.07C9.76 12.53 11.13 13.57 12.95 13.57ZM14.88 10.05C14.88 11.72 14.17 12.57 12.95 12.57C11.76 12.57 11.05 11.72 11.05 10.05C11.05 8.37 11.82 7.60 12.95 7.60C14.11 7.60 14.88 8.37 14.88 10.05ZM25.52 11.89L22.44 3.63L21.20 3.63L20.66 13.43L21.88 13.43L22.16 7.84C22.18 7.52 22.19 7.14 22.19 6.78C22.19 6.41 22.18 6.05 22.18 5.74C22.37 6.38 22.68 7.25 22.86 7.73L24.96 13.43L26.07 13.43L28.18 7.74C28.34 7.32 28.67 6.38 28.88 5.74C28.87 6.10 28.85 6.58 28.85 7.03C28.85 7.32 28.87 7.60 28.88 7.84L29.16 13.43L30.37 13.43L29.85 3.63L28.59 3.63ZM34.87 13.57C36.71 13.57 38.08 12.53 38.08 10.07C38.08 7.71 36.81 6.61 34.87 6.61C32.97 6.61 31.68 7.71 31.68 10.07C31.68 12.53 33.05 13.57 34.87 13.57ZM36.81 10.05C36.81 11.72 36.09 12.57 34.87 12.57C33.68 12.57 32.97 11.72 32.97 10.05C32.97 8.37 33.74 7.60 34.87 7.60C36.04 7.60 36.81 8.37 36.81 10.05ZM40.84 13.43L40.84 13.02C40.84 9.24 41.99 7.77 43.27 7.77C43.48 7.77 43.67 7.78 43.82 7.83L43.82 6.66C43.64 6.62 43.48 6.61 43.23 6.61C42.01 6.61 41.24 7.62 40.81 9.09L40.78 6.75L39.56 6.75L39.56 13.43ZM47.33 6.61C45.39 6.61 44.23 7.74 44.23 9.95C44.23 12.33 45.64 13.57 47.88 13.57C48.64 13.57 49.46 13.44 50.09 13.19L50.09 12.15C49.31 12.40 48.44 12.52 47.85 12.52C46.44 12.52 45.61 11.84 45.46 10.40L50.20 10.40L50.20 9.83C50.20 7.71 49.17 6.61 47.33 6.61ZM47.32 7.56C48.41 7.56 48.96 8.40 48.96 9.53L45.44 9.53C45.56 8.18 46.28 7.56 47.32 7.56ZM55.76 5.80C55.76 4.97 56.34 4.51 57.53 4.51C58.31 4.51 58.97 4.63 59.64 4.82L59.64 3.78C59.08 3.63 58.48 3.49 57.41 3.49C55.44 3.49 54.53 4.40 54.53 5.81C54.53 6.94 55.16 7.64 56.83 8.85C58.27 9.87 58.67 10.37 58.67 11.06C58.67 12.04 58.02 12.52 56.78 12.52C55.79 12.52 54.88 12.32 54.39 12.19L54.39 13.26C54.77 13.36 55.69 13.57 56.81 13.57C58.77 13.57 59.91 12.70 59.91 11.00C59.91 9.79 59.21 9.09 57.74 8.01C56.13 6.82 55.76 6.50 55.76 5.80ZM62.52 13.43L62.52 12.87C62.55 10.81 63.11 7.67 64.44 7.67C65.09 7.67 65.35 8.15 65.35 9.16L65.35 13.43L66.63 13.43L66.63 12.19C66.75 10.19 67.33 7.67 68.53 7.67C69.17 7.67 69.43 8.15 69.43 9.16L69.43 13.43L70.69 13.43L70.69 8.90C70.69 7.52 70.31 6.62 68.94 6.62C67.80 6.62 67.06 7.38 66.63 8.76C66.60 7.46 66.16 6.62 64.86 6.62C63.69 6.62 62.93 7.43 62.50 8.90L62.47 6.75L61.25 6.75L61.25 13.43ZM75.29 13.57C77.13 13.57 78.50 12.53 78.50 10.07C78.50 7.71 77.22 6.61 75.29 6.61C73.39 6.61 72.10 7.71 72.10 10.07C72.10 12.53 73.47 13.57 75.29 13.57ZM77.22 10.05C77.22 11.72 76.51 12.57 75.29 12.57C74.10 12.57 73.39 11.72 73.39 10.05C73.39 8.37 74.16 7.60 75.29 7.60C76.45 7.60 77.22 8.37 77.22 10.05ZM83.41 9.90L86.00 6.75L84.60 6.75L82.38 9.42L81.26 9.42L81.26 2.93L79.98 2.93L79.98 13.43L81.26 13.43L81.26 10.49L82.42 10.49L84.73 13.43L86.14 13.43ZM89.52 6.61C87.57 6.61 86.41 7.74 86.41 9.95C86.41 12.33 87.82 13.57 90.06 13.57C90.82 13.57 91.64 13.44 92.27 13.19L92.27 12.15C91.49 12.40 90.62 12.52 90.03 12.52C88.62 12.52 87.79 11.84 87.64 10.40L92.39 10.40L92.39 9.83C92.39 7.71 91.35 6.61 89.52 6.61ZM89.50 7.56C90.59 7.56 91.14 8.40 91.14 9.53L87.63 9.53C87.74 8.18 88.47 7.56 89.50 7.56Z"></path></g><!----><!----></svg>